<svg data-v-0dd9719b="" version="1.0" xmlns="http://www.w3.org/2000/svg" xmlns:xlink="http://www.w3.org/1999/xlink" width="100%" height="100%" viewBox="0 0 340.000000 130.000000" preserveAspectRatio="xMidYMid meet" color-interpolation-filters="sRGB" style="margin: auto;">
  <rect data-v-0dd9719b="" x="0" y="0" width="100%" height="100%" fill="#fa1d42" fill-opacity="1" class="background"></rect>
  <rect data-v-0dd9719b="" x="0" y="0" width="100%" height="100%" fill="url(#watermark)" fill-opacity="1" class="watermarklayer"></rect>
  <g data-v-0dd9719b="" fill="#feffff" class="linesvg" transform="translate(100.875,25.42499923706055)">
    <rect fill="#feffff" x="0" y="0" width="138.25" height="5"></rect>
    <rect fill="#feffff" x="0" y="74.1500015258789" width="138.25" height="5"></rect>
    <g fill="#feffff" transform="translate(0,10)">
      <g data-gra="path-name" fill-rule="" class="tp-name" transform="translate(7.075000762939453,0)">
        <g transform="scale(1)">
          <g>
            <path d="M0-40.99L0 0 7.85 0 7.85-40.99 0-40.99ZM29.82-33.13L29.82-23.41 20.1-23.41 20.1-33.13 29.82-33.13ZM31.64-40.99L12.25-40.99 12.25 0 20.1 0 20.1-15.59 29.82-15.59 29.82 0 37.65 0 37.65-18.34 35.51-20.42 37.65-22.56 37.65-34.95 31.64-40.99ZM62.87-40.99L42.04-40.99 42.04 0 62.87 0 62.87-7.85 49.89-7.85 49.89-16.58 60.26-16.58 60.26-24.4 49.89-24.4 49.89-33.13 62.87-33.13 62.87-40.99ZM86.46-40.99L86.46-17.64 76.08-40.99 67.27-40.99 67.27 0 75.12 0 75.12-23.35 85.49 0 94.31 0 94.31-40.99 86.46-40.99ZM118.1-40.99L104.71-40.99 98.7-34.95 98.7-6.01 104.71 0 118.1 0 124.1-6.01 124.1-24.4 111.77-24.4 111.77-16.58 116.28-16.58 116.28-7.85 106.55-7.85 106.55-33.13 116.28-33.13 116.28-27.01 124.1-27.01 124.1-34.95 118.1-40.99Z" transform="translate(0, 40.9900016784668)"></path>
          </g>
          <!---->
          <!---->
          <!---->
          <!---->
          <!---->
          <!---->
          <!---->
        </g>
      </g>
      <g data-gra="path-slogan" fill-rule="" class="tp-slogan" fill="#feffff" transform="translate(0,46.9900016784668)">
        <!---->
        <!---->
        <g mask="url(#6e9129c4-4e14-41fd-9d86-c41c26017cce)">
          <g>
            <rect data-gra="graph-name-bg" stroke-width="2" class="i-icon-bg" x="0" y="0" width="138.25" height="12.160001754760742" fill-opacity="1"></rect>
            <!---->
            <!---->
          </g>
          <g transform="translate(5,2)">
            <g transform="scale(1, 1)" fill="#fa1d42">
              <g transform="scale(1)">
                <path d="M0.62-3.94C0.62-3.30 0.71-2.72 0.88-2.21C1.05-1.71 1.29-1.28 1.60-0.93C1.91-0.58 2.27-0.32 2.69-0.13C3.11 0.05 3.57 0.14 4.07 0.14C4.57 0.14 5.02 0.04 5.41-0.16C5.80-0.36 6.16-0.64 6.47-1.00L5.90-1.61C5.65-1.33 5.38-1.11 5.09-0.96C4.81-0.81 4.48-0.73 4.09-0.73C3.72-0.73 3.38-0.81 3.08-0.96C2.78-1.11 2.52-1.33 2.32-1.61C2.11-1.89 1.95-2.23 1.83-2.62C1.71-3.02 1.66-3.46 1.66-3.96C1.66-4.45 1.72-4.89 1.84-5.28C1.96-5.67 2.12-6.01 2.34-6.28C2.56-6.56 2.82-6.77 3.12-6.92C3.42-7.07 3.76-7.14 4.14-7.14C4.48-7.14 4.77-7.07 5.02-6.94C5.27-6.81 5.50-6.63 5.71-6.41L6.28-7.04C6.04-7.30 5.75-7.53 5.39-7.72C5.03-7.92 4.61-8.02 4.13-8.02C3.62-8.02 3.16-7.92 2.73-7.73C2.30-7.55 1.93-7.28 1.62-6.92C1.31-6.57 1.06-6.14 0.89-5.64C0.71-5.14 0.62-4.57 0.62-3.94ZM6.77-7.87L6.77-3.25C6.77-2.62 6.84-2.09 6.99-1.66C7.13-1.22 7.33-0.87 7.58-0.61C7.83-0.34 8.13-0.15 8.48-0.03C8.83 0.09 9.20 0.14 9.60 0.14C10.00 0.14 10.37 0.09 10.72-0.03C11.06-0.15 11.36-0.34 11.61-0.61C11.86-0.87 12.06-1.22 12.21-1.66C12.35-2.09 12.42-2.62 12.42-3.25L12.42-7.87L11.46-7.87L11.46-3.23C11.46-2.76 11.41-2.36 11.32-2.04C11.22-1.72 11.09-1.46 10.92-1.27C10.75-1.08 10.56-0.94 10.33-0.86C10.11-0.77 9.87-0.73 9.60-0.73C9.35-0.73 9.11-0.77 8.88-0.86C8.66-0.94 8.46-1.08 8.30-1.27C8.14-1.46 8.01-1.72 7.91-2.04C7.81-2.36 7.77-2.76 7.77-3.23L7.77-7.87ZM13.49-1.72L12.89-1.02C13.24-0.66 13.64-0.38 14.12-0.17C14.59 0.04 15.10 0.14 15.65 0.14C16.07 0.14 16.44 0.09 16.77-0.03C17.10-0.15 17.38-0.31 17.61-0.51C17.84-0.71 18.02-0.95 18.14-1.22C18.27-1.50 18.33-1.79 18.33-2.10C18.33-2.39 18.29-2.64 18.20-2.86C18.12-3.08 18.00-3.27 17.86-3.44C17.72-3.60 17.54-3.75 17.34-3.87C17.14-3.99 16.93-4.10 16.71-4.20L15.59-4.68C15.43-4.74 15.28-4.81 15.12-4.89C14.97-4.97 14.83-5.05 14.70-5.15C14.58-5.25 14.47-5.37 14.40-5.50C14.32-5.63 14.28-5.80 14.28-5.99C14.28-6.35 14.42-6.63 14.69-6.83C14.95-7.04 15.31-7.14 15.75-7.14C16.12-7.14 16.45-7.07 16.74-6.94C17.03-6.81 17.30-6.63 17.54-6.40L18.08-7.04C17.80-7.33 17.46-7.57 17.06-7.75C16.66-7.93 16.22-8.02 15.75-8.02C15.39-8.02 15.06-7.96 14.76-7.86C14.46-7.76 14.20-7.61 13.98-7.42C13.76-7.23 13.59-7.01 13.46-6.76C13.34-6.50 13.28-6.22 13.28-5.93C13.28-5.64 13.32-5.39 13.42-5.17C13.52-4.95 13.64-4.76 13.79-4.60C13.94-4.44 14.12-4.30 14.31-4.19C14.50-4.08 14.69-3.98 14.87-3.90L16.00-3.41C16.18-3.32 16.36-3.24 16.52-3.16C16.68-3.08 16.81-2.99 16.93-2.89C17.05-2.79 17.14-2.67 17.21-2.53C17.27-2.39 17.31-2.22 17.31-2.02C17.31-1.63 17.16-1.32 16.88-1.09C16.59-0.85 16.18-0.73 15.66-0.73C15.26-0.73 14.86-0.82 14.48-1.00C14.10-1.18 13.77-1.42 13.49-1.72ZM20.31-7.03L20.31 0L21.32 0L21.32-7.03L23.69-7.03L23.69-7.87L17.93-7.87L17.93-7.03ZM26.77 0.14C27.26 0.14 27.72 0.05 28.13-0.14C28.54-0.34 28.90-0.61 29.20-0.97C29.50-1.32 29.73-1.75 29.89-2.26C30.06-2.77 30.14-3.34 30.14-3.97C30.14-4.60 30.06-5.16 29.89-5.66C29.73-6.16 29.50-6.58 29.20-6.93C28.90-7.28 28.54-7.55 28.13-7.73C27.72-7.92 27.26-8.02 26.77-8.02C26.27-8.02 25.82-7.92 25.41-7.74C24.99-7.56 24.64-7.29 24.34-6.94C24.05-6.59 23.82-6.17 23.65-5.67C23.49-5.17 23.41-4.60 23.41-3.97C23.41-3.34 23.49-2.77 23.65-2.26C23.82-1.75 24.05-1.32 24.34-0.97C24.64-0.61 24.99-0.34 25.41-0.14C25.82 0.05 26.27 0.14 26.77 0.14ZM26.77-0.73C26.42-0.73 26.10-0.81 25.81-0.96C25.53-1.11 25.29-1.33 25.08-1.61C24.88-1.90 24.72-2.24 24.61-2.63C24.50-3.03 24.44-3.48 24.44-3.97C24.44-4.46 24.50-4.90 24.61-5.29C24.72-5.68 24.88-6.02 25.08-6.29C25.29-6.56 25.53-6.77 25.81-6.92C26.10-7.07 26.42-7.14 26.77-7.14C27.12-7.14 27.44-7.07 27.72-6.92C28.01-6.77 28.25-6.56 28.45-6.29C28.66-6.02 28.82-5.68 28.93-5.29C29.04-4.90 29.10-4.46 29.10-3.97C29.10-3.48 29.04-3.03 28.93-2.63C28.82-2.24 28.66-1.90 28.45-1.61C28.25-1.33 28.01-1.11 27.72-0.96C27.44-0.81 27.12-0.73 26.77-0.73ZM30.87-7.87L30.87 0L31.80 0L31.80-4.33C31.80-4.68 31.78-5.07 31.75-5.50C31.72-5.92 31.69-6.31 31.67-6.66L31.71-6.66L32.34-4.91L33.86-0.79L34.43-0.79L35.94-4.91L36.57-6.66L36.62-6.66C36.59-6.31 36.56-5.92 36.53-5.50C36.50-5.07 36.49-4.68 36.49-4.33L36.49 0L37.44 0L37.44-7.87L36.26-7.87L34.75-3.65L34.20-2.04L34.15-2.04L33.57-3.65L32.05-7.87ZM40.11-7.87L40.11 0L42.61 0C43.05 0 43.46-0.05 43.83-0.14C44.19-0.24 44.51-0.38 44.77-0.58C45.04-0.77 45.24-1.01 45.39-1.30C45.53-1.58 45.60-1.92 45.60-2.30C45.60-2.85 45.44-3.28 45.12-3.59C44.80-3.90 44.35-4.10 43.78-4.19L43.78-4.24C44.24-4.36 44.59-4.57 44.81-4.89C45.03-5.21 45.15-5.56 45.15-5.95C45.15-6.30 45.08-6.59 44.95-6.83C44.82-7.08 44.63-7.28 44.40-7.43C44.16-7.58 43.88-7.69 43.54-7.76C43.21-7.84 42.85-7.87 42.45-7.87ZM42.27-4.51L41.10-4.51L41.10-7.08L42.31-7.08C42.93-7.08 43.39-6.99 43.70-6.80C44.01-6.61 44.16-6.30 44.16-5.87C44.16-5.43 44.02-5.09 43.72-4.86C43.43-4.63 42.95-4.51 42.27-4.51ZM42.47-0.79L41.10-0.79L41.10-3.77L42.47-3.77C43.17-3.77 43.70-3.65 44.07-3.43C44.43-3.20 44.62-2.84 44.62-2.35C44.62-1.82 44.43-1.42 44.05-1.17C43.68-0.92 43.15-0.79 42.47-0.79ZM46.20-7.87L46.20 0L50.64 0L50.64-0.85L47.20-0.85L47.20-7.87ZM54.46-3.20L52.10-3.20L52.47-4.40C52.61-4.84 52.75-5.28 52.88-5.72C53.01-6.15 53.13-6.60 53.25-7.06L53.30-7.06C53.43-6.60 53.55-6.15 53.68-5.72C53.81-5.28 53.95-4.84 54.09-4.40ZM54.71-2.40L55.46 0L56.53 0L53.86-7.87L52.73-7.87L50.07 0L51.09 0L51.85-2.40ZM56.11-3.94C56.11-3.30 56.19-2.72 56.37-2.21C56.54-1.71 56.78-1.28 57.09-0.93C57.39-0.58 57.76-0.32 58.18-0.13C58.60 0.05 59.06 0.14 59.55 0.14C60.06 0.14 60.50 0.04 60.90-0.16C61.29-0.36 61.64-0.64 61.95-1.00L61.39-1.61C61.13-1.33 60.86-1.11 60.58-0.96C60.29-0.81 59.96-0.73 59.58-0.73C59.20-0.73 58.86-0.81 58.56-0.96C58.26-1.11 58.01-1.33 57.80-1.61C57.59-1.89 57.43-2.23 57.31-2.62C57.20-3.02 57.14-3.46 57.14-3.96C57.14-4.45 57.20-4.89 57.32-5.28C57.44-5.67 57.61-6.01 57.82-6.28C58.04-6.56 58.30-6.77 58.60-6.92C58.91-7.07 59.25-7.14 59.62-7.14C59.96-7.14 60.25-7.07 60.51-6.94C60.76-6.81 60.99-6.63 61.20-6.41L61.76-7.04C61.53-7.30 61.23-7.53 60.87-7.72C60.51-7.92 60.09-8.02 59.61-8.02C59.11-8.02 58.64-7.92 58.21-7.73C57.79-7.55 57.42-7.28 57.10-6.92C56.79-6.57 56.55-6.14 56.37-5.64C56.20-5.14 56.11-4.57 56.11-3.94ZM62.46-7.87L62.46 0L63.45 0L63.45-2.50L64.81-4.09L67.16 0L68.28 0L65.43-4.87L67.89-7.87L66.77-7.87L63.49-3.92L63.45-3.92L63.45-7.87ZM69.91-7.87L69.91 0L70.84 0L70.84-4.33C70.84-4.68 70.82-5.07 70.79-5.50C70.76-5.92 70.73-6.31 70.71-6.66L70.75-6.66L71.38-4.91L72.90-0.79L73.47-0.79L74.98-4.91L75.61-6.66L75.66-6.66C75.63-6.31 75.60-5.92 75.57-5.50C75.54-5.07 75.53-4.68 75.53-4.33L75.53 0L76.48 0L76.48-7.87L75.30-7.87L73.79-3.65L73.24-2.04L73.19-2.04L72.61-3.65L71.09-7.87ZM81.03-3.20L78.66-3.20L79.04-4.40C79.18-4.84 79.32-5.28 79.44-5.72C79.57-6.15 79.70-6.60 79.82-7.06L79.86-7.06C79.99-6.60 80.12-6.15 80.25-5.72C80.38-5.28 80.51-4.84 80.66-4.40ZM81.28-2.40L82.02 0L83.09 0L80.43-7.87L79.30-7.87L76.64 0L77.66 0L78.41-2.40ZM82.67-3.94C82.67-3.30 82.76-2.72 82.94-2.21C83.11-1.71 83.36-1.28 83.67-0.93C83.98-0.58 84.35-0.32 84.79-0.13C85.22 0.05 85.69 0.14 86.21 0.14C86.74 0.14 87.22 0.06 87.64-0.11C88.06-0.29 88.39-0.50 88.65-0.77L88.65-4.08L86.07-4.08L86.07-3.25L87.74-3.25L87.74-1.20C87.58-1.06 87.37-0.94 87.12-0.86C86.87-0.77 86.60-0.73 86.32-0.73C85.90-0.73 85.52-0.81 85.20-0.96C84.88-1.11 84.60-1.33 84.38-1.61C84.16-1.89 84.00-2.23 83.88-2.62C83.76-3.02 83.71-3.46 83.71-3.96C83.71-4.45 83.77-4.89 83.89-5.28C84.02-5.67 84.19-6.01 84.41-6.28C84.64-6.56 84.91-6.77 85.23-6.92C85.55-7.07 85.91-7.14 86.31-7.14C86.71-7.14 87.04-7.07 87.30-6.93C87.56-6.79 87.79-6.62 87.99-6.41L88.55-7.04C88.32-7.28 88.02-7.51 87.66-7.71C87.30-7.91 86.84-8.02 86.30-8.02C85.77-8.02 85.29-7.92 84.85-7.73C84.41-7.55 84.02-7.28 83.70-6.92C83.38-6.57 83.12-6.14 82.94-5.64C82.76-5.14 82.67-4.57 82.67-3.94ZM89.58-7.87L89.58 0L90.57 0L90.57-7.87ZM91.32-3.94C91.32-3.30 91.40-2.72 91.58-2.21C91.75-1.71 91.99-1.28 92.30-0.93C92.60-0.58 92.97-0.32 93.39-0.13C93.81 0.05 94.27 0.14 94.76 0.14C95.27 0.14 95.71 0.04 96.11-0.16C96.50-0.36 96.85-0.64 97.16-1.00L96.60-1.61C96.34-1.33 96.07-1.11 95.79-0.96C95.50-0.81 95.17-0.73 94.79-0.73C94.41-0.73 94.07-0.81 93.77-0.96C93.47-1.11 93.22-1.33 93.01-1.61C92.80-1.89 92.64-2.23 92.52-2.62C92.41-3.02 92.35-3.46 92.35-3.96C92.35-4.45 92.41-4.89 92.53-5.28C92.65-5.67 92.82-6.01 93.03-6.28C93.25-6.56 93.51-6.77 93.81-6.92C94.12-7.07 94.46-7.14 94.83-7.14C95.17-7.14 95.46-7.07 95.72-6.94C95.97-6.81 96.20-6.63 96.41-6.41L96.97-7.04C96.74-7.30 96.44-7.53 96.08-7.72C95.72-7.92 95.30-8.02 94.82-8.02C94.32-8.02 93.85-7.92 93.42-7.73C93.00-7.55 92.63-7.28 92.31-6.92C92.00-6.57 91.76-6.14 91.58-5.64C91.41-5.14 91.32-4.57 91.32-3.94ZM99.13-7.87L99.13 0L100.13 0L100.13-3.12L101.55-3.12C101.98-3.12 102.37-3.17 102.73-3.27C103.08-3.37 103.39-3.52 103.65-3.72C103.90-3.92 104.10-4.17 104.24-4.48C104.38-4.78 104.45-5.14 104.45-5.56C104.45-5.99 104.38-6.35 104.24-6.65C104.10-6.94 103.90-7.18 103.65-7.36C103.40-7.54 103.09-7.67 102.73-7.75C102.37-7.83 101.98-7.87 101.55-7.87ZM101.43-3.94L100.13-3.94L100.13-7.07L101.43-7.07C102.11-7.07 102.61-6.96 102.95-6.74C103.29-6.52 103.45-6.12 103.45-5.56C103.45-5.00 103.29-4.59 102.96-4.33C102.62-4.07 102.11-3.94 101.43-3.94ZM106.08-4.14L106.08-7.07L107.40-7.07C108.02-7.07 108.49-6.96 108.82-6.76C109.15-6.55 109.31-6.18 109.31-5.66C109.31-5.15 109.15-4.77 108.82-4.52C108.49-4.27 108.02-4.14 107.40-4.14ZM109.41 0L110.54 0L108.54-3.43C109.08-3.57 109.51-3.82 109.83-4.19C110.15-4.56 110.31-5.05 110.31-5.66C110.31-6.07 110.24-6.42 110.10-6.70C109.97-6.98 109.78-7.20 109.53-7.38C109.29-7.56 109.00-7.68 108.66-7.76C108.32-7.83 107.95-7.87 107.55-7.87L105.09-7.87L105.09 0L106.08 0L106.08-3.32L107.51-3.32ZM114.01 0.14C114.50 0.14 114.96 0.05 115.37-0.14C115.78-0.34 116.14-0.61 116.44-0.97C116.74-1.32 116.97-1.75 117.13-2.26C117.30-2.77 117.38-3.34 117.38-3.97C117.38-4.60 117.30-5.16 117.13-5.66C116.97-6.16 116.74-6.58 116.44-6.93C116.14-7.28 115.78-7.55 115.37-7.73C114.96-7.92 114.50-8.02 114.01-8.02C113.51-8.02 113.06-7.92 112.64-7.74C112.23-7.56 111.88-7.29 111.58-6.94C111.29-6.59 111.06-6.17 110.89-5.67C110.73-5.17 110.65-4.60 110.65-3.97C110.65-3.34 110.73-2.77 110.89-2.26C111.06-1.75 111.29-1.32 111.58-0.97C111.88-0.61 112.23-0.34 112.64-0.14C113.06 0.05 113.51 0.14 114.01 0.14ZM114.01-0.73C113.65-0.73 113.34-0.81 113.05-0.96C112.77-1.11 112.52-1.33 112.32-1.61C112.12-1.90 111.96-2.24 111.85-2.63C111.73-3.03 111.68-3.48 111.68-3.97C111.68-4.46 111.73-4.90 111.85-5.29C111.96-5.68 112.12-6.02 112.32-6.29C112.52-6.56 112.77-6.77 113.05-6.92C113.34-7.07 113.65-7.14 114.01-7.14C114.36-7.14 114.68-7.07 114.96-6.92C115.24-6.77 115.49-6.56 115.69-6.29C115.90-6.02 116.05-5.68 116.17-5.29C116.28-4.90 116.33-4.46 116.33-3.97C116.33-3.48 116.28-3.03 116.17-2.63C116.05-2.24 115.90-1.90 115.69-1.61C115.49-1.33 115.24-1.11 114.96-0.96C114.68-0.81 114.36-0.73 114.01-0.73ZM118.11-7.87L118.11 0L120.62 0C121.06 0 121.46-0.05 121.83-0.14C122.20-0.24 122.52-0.38 122.78-0.58C123.04-0.77 123.25-1.01 123.39-1.30C123.54-1.58 123.61-1.92 123.61-2.30C123.61-2.85 123.45-3.28 123.13-3.59C122.81-3.90 122.36-4.10 121.78-4.19L121.78-4.24C122.25-4.36 122.59-4.57 122.82-4.89C123.04-5.21 123.15-5.56 123.15-5.95C123.15-6.30 123.09-6.59 122.95-6.83C122.82-7.08 122.64-7.28 122.40-7.43C122.17-7.58 121.88-7.69 121.55-7.76C121.22-7.84 120.85-7.87 120.45-7.87ZM120.27-4.51L119.11-4.51L119.11-7.08L120.32-7.08C120.94-7.08 121.40-6.99 121.71-6.80C122.01-6.61 122.17-6.30 122.17-5.87C122.17-5.43 122.02-5.09 121.73-4.86C121.44-4.63 120.95-4.51 120.27-4.51ZM120.48-0.79L119.11-0.79L119.11-3.77L120.48-3.77C121.17-3.77 121.70-3.65 122.07-3.43C122.44-3.20 122.62-2.84 122.62-2.35C122.62-1.82 122.44-1.42 122.06-1.17C121.68-0.92 121.16-0.79 120.48-0.79ZM124.21-7.87L124.21 0L128.87 0L128.87-0.85L125.21-0.85L125.21-3.71L128.19-3.71L128.19-4.56L125.21-4.56L125.21-7.03L128.75-7.03L128.75-7.87Z" transform="translate(-0.624, 8.016)"></path>
              </g>
            </g>
          </g>
        </g>
      </g>
    </g>
  </g>
  <mask id="6e9129c4-4e14-41fd-9d86-c41c26017cce">
    <g fill="white">
      <rect data-gra="graph-name-bg" stroke-width="2" class="i-icon-bg" x="0" y="0" width="138.25" height="12.160001754760742" fill-opacity="1"></rect>
    </g>
    <g transform="translate(5,2)" fill="black">
      <g transform="scale(1, 1)">
        <g transform="scale(1)">
          <path d="M0.62-3.94C0.62-3.30 0.71-2.72 0.88-2.21C1.05-1.71 1.29-1.28 1.60-0.93C1.91-0.58 2.27-0.32 2.69-0.13C3.11 0.05 3.57 0.14 4.07 0.14C4.57 0.14 5.02 0.04 5.41-0.16C5.80-0.36 6.16-0.64 6.47-1.00L5.90-1.61C5.65-1.33 5.38-1.11 5.09-0.96C4.81-0.81 4.48-0.73 4.09-0.73C3.72-0.73 3.38-0.81 3.08-0.96C2.78-1.11 2.52-1.33 2.32-1.61C2.11-1.89 1.95-2.23 1.83-2.62C1.71-3.02 1.66-3.46 1.66-3.96C1.66-4.45 1.72-4.89 1.84-5.28C1.96-5.67 2.12-6.01 2.34-6.28C2.56-6.56 2.82-6.77 3.12-6.92C3.42-7.07 3.76-7.14 4.14-7.14C4.48-7.14 4.77-7.07 5.02-6.94C5.27-6.81 5.50-6.63 5.71-6.41L6.28-7.04C6.04-7.30 5.75-7.53 5.39-7.72C5.03-7.92 4.61-8.02 4.13-8.02C3.62-8.02 3.16-7.92 2.73-7.73C2.30-7.55 1.93-7.28 1.62-6.92C1.31-6.57 1.06-6.14 0.89-5.64C0.71-5.14 0.62-4.57 0.62-3.94ZM6.77-7.87L6.77-3.25C6.77-2.62 6.84-2.09 6.99-1.66C7.13-1.22 7.33-0.87 7.58-0.61C7.83-0.34 8.13-0.15 8.48-0.03C8.83 0.09 9.20 0.14 9.60 0.14C10.00 0.14 10.37 0.09 10.72-0.03C11.06-0.15 11.36-0.34 11.61-0.61C11.86-0.87 12.06-1.22 12.21-1.66C12.35-2.09 12.42-2.62 12.42-3.25L12.42-7.87L11.46-7.87L11.46-3.23C11.46-2.76 11.41-2.36 11.32-2.04C11.22-1.72 11.09-1.46 10.92-1.27C10.75-1.08 10.56-0.94 10.33-0.86C10.11-0.77 9.87-0.73 9.60-0.73C9.35-0.73 9.11-0.77 8.88-0.86C8.66-0.94 8.46-1.08 8.30-1.27C8.14-1.46 8.01-1.72 7.91-2.04C7.81-2.36 7.77-2.76 7.77-3.23L7.77-7.87ZM13.49-1.72L12.89-1.02C13.24-0.66 13.64-0.38 14.12-0.17C14.59 0.04 15.10 0.14 15.65 0.14C16.07 0.14 16.44 0.09 16.77-0.03C17.10-0.15 17.38-0.31 17.61-0.51C17.84-0.71 18.02-0.95 18.14-1.22C18.27-1.50 18.33-1.79 18.33-2.10C18.33-2.39 18.29-2.64 18.20-2.86C18.12-3.08 18.00-3.27 17.86-3.44C17.72-3.60 17.54-3.75 17.34-3.87C17.14-3.99 16.93-4.10 16.71-4.20L15.59-4.68C15.43-4.74 15.28-4.81 15.12-4.89C14.97-4.97 14.83-5.05 14.70-5.15C14.58-5.25 14.47-5.37 14.40-5.50C14.32-5.63 14.28-5.80 14.28-5.99C14.28-6.35 14.42-6.63 14.69-6.83C14.95-7.04 15.31-7.14 15.75-7.14C16.12-7.14 16.45-7.07 16.74-6.94C17.03-6.81 17.30-6.63 17.54-6.40L18.08-7.04C17.80-7.33 17.46-7.57 17.06-7.75C16.66-7.93 16.22-8.02 15.75-8.02C15.39-8.02 15.06-7.96 14.76-7.86C14.46-7.76 14.20-7.61 13.98-7.42C13.76-7.23 13.59-7.01 13.46-6.76C13.34-6.50 13.28-6.22 13.28-5.93C13.28-5.64 13.32-5.39 13.42-5.17C13.52-4.95 13.64-4.76 13.79-4.60C13.94-4.44 14.12-4.30 14.31-4.19C14.50-4.08 14.69-3.98 14.87-3.90L16.00-3.41C16.18-3.32 16.36-3.24 16.52-3.16C16.68-3.08 16.81-2.99 16.93-2.89C17.05-2.79 17.14-2.67 17.21-2.53C17.27-2.39 17.31-2.22 17.31-2.02C17.31-1.63 17.16-1.32 16.88-1.09C16.59-0.85 16.18-0.73 15.66-0.73C15.26-0.73 14.86-0.82 14.48-1.00C14.10-1.18 13.77-1.42 13.49-1.72ZM20.31-7.03L20.31 0L21.32 0L21.32-7.03L23.69-7.03L23.69-7.87L17.93-7.87L17.93-7.03ZM26.77 0.14C27.26 0.14 27.72 0.05 28.13-0.14C28.54-0.34 28.90-0.61 29.20-0.97C29.50-1.32 29.73-1.75 29.89-2.26C30.06-2.77 30.14-3.34 30.14-3.97C30.14-4.60 30.06-5.16 29.89-5.66C29.73-6.16 29.50-6.58 29.20-6.93C28.90-7.28 28.54-7.55 28.13-7.73C27.72-7.92 27.26-8.02 26.77-8.02C26.27-8.02 25.82-7.92 25.41-7.74C24.99-7.56 24.64-7.29 24.34-6.94C24.05-6.59 23.82-6.17 23.65-5.67C23.49-5.17 23.41-4.60 23.41-3.97C23.41-3.34 23.49-2.77 23.65-2.26C23.82-1.75 24.05-1.32 24.34-0.97C24.64-0.61 24.99-0.34 25.41-0.14C25.82 0.05 26.27 0.14 26.77 0.14ZM26.77-0.73C26.42-0.73 26.10-0.81 25.81-0.96C25.53-1.11 25.29-1.33 25.08-1.61C24.88-1.90 24.72-2.24 24.61-2.63C24.50-3.03 24.44-3.48 24.44-3.97C24.44-4.46 24.50-4.90 24.61-5.29C24.72-5.68 24.88-6.02 25.08-6.29C25.29-6.56 25.53-6.77 25.81-6.92C26.10-7.07 26.42-7.14 26.77-7.14C27.12-7.14 27.44-7.07 27.72-6.92C28.01-6.77 28.25-6.56 28.45-6.29C28.66-6.02 28.82-5.68 28.93-5.29C29.04-4.90 29.10-4.46 29.10-3.97C29.10-3.48 29.04-3.03 28.93-2.63C28.82-2.24 28.66-1.90 28.45-1.61C28.25-1.33 28.01-1.11 27.72-0.96C27.44-0.81 27.12-0.73 26.77-0.73ZM30.87-7.87L30.87 0L31.80 0L31.80-4.33C31.80-4.68 31.78-5.07 31.75-5.50C31.72-5.92 31.69-6.31 31.67-6.66L31.71-6.66L32.34-4.91L33.86-0.79L34.43-0.79L35.94-4.91L36.57-6.66L36.62-6.66C36.59-6.31 36.56-5.92 36.53-5.50C36.50-5.07 36.49-4.68 36.49-4.33L36.49 0L37.44 0L37.44-7.87L36.26-7.87L34.75-3.65L34.20-2.04L34.15-2.04L33.57-3.65L32.05-7.87ZM40.11-7.87L40.11 0L42.61 0C43.05 0 43.46-0.05 43.83-0.14C44.19-0.24 44.51-0.38 44.77-0.58C45.04-0.77 45.24-1.01 45.39-1.30C45.53-1.58 45.60-1.92 45.60-2.30C45.60-2.85 45.44-3.28 45.12-3.59C44.80-3.90 44.35-4.10 43.78-4.19L43.78-4.24C44.24-4.36 44.59-4.57 44.81-4.89C45.03-5.21 45.15-5.56 45.15-5.95C45.15-6.30 45.08-6.59 44.95-6.83C44.82-7.08 44.63-7.28 44.40-7.43C44.16-7.58 43.88-7.69 43.54-7.76C43.21-7.84 42.85-7.87 42.45-7.87ZM42.27-4.51L41.10-4.51L41.10-7.08L42.31-7.08C42.93-7.08 43.39-6.99 43.70-6.80C44.01-6.61 44.16-6.30 44.16-5.87C44.16-5.43 44.02-5.09 43.72-4.86C43.43-4.63 42.95-4.51 42.27-4.51ZM42.47-0.79L41.10-0.79L41.10-3.77L42.47-3.77C43.17-3.77 43.70-3.65 44.07-3.43C44.43-3.20 44.62-2.84 44.62-2.35C44.62-1.82 44.43-1.42 44.05-1.17C43.68-0.92 43.15-0.79 42.47-0.79ZM46.20-7.87L46.20 0L50.64 0L50.64-0.85L47.20-0.85L47.20-7.87ZM54.46-3.20L52.10-3.20L52.47-4.40C52.61-4.84 52.75-5.28 52.88-5.72C53.01-6.15 53.13-6.60 53.25-7.06L53.30-7.06C53.43-6.60 53.55-6.15 53.68-5.72C53.81-5.28 53.95-4.84 54.09-4.40ZM54.71-2.40L55.46 0L56.53 0L53.86-7.87L52.73-7.87L50.07 0L51.09 0L51.85-2.40ZM56.11-3.94C56.11-3.30 56.19-2.72 56.37-2.21C56.54-1.71 56.78-1.28 57.09-0.93C57.39-0.58 57.76-0.32 58.18-0.13C58.60 0.05 59.06 0.14 59.55 0.14C60.06 0.14 60.50 0.04 60.90-0.16C61.29-0.36 61.64-0.64 61.95-1.00L61.39-1.61C61.13-1.33 60.86-1.11 60.58-0.96C60.29-0.81 59.96-0.73 59.58-0.73C59.20-0.73 58.86-0.81 58.56-0.96C58.26-1.11 58.01-1.33 57.80-1.61C57.59-1.89 57.43-2.23 57.31-2.62C57.20-3.02 57.14-3.46 57.14-3.96C57.14-4.45 57.20-4.89 57.32-5.28C57.44-5.67 57.61-6.01 57.82-6.28C58.04-6.56 58.30-6.77 58.60-6.92C58.91-7.07 59.25-7.14 59.62-7.14C59.96-7.14 60.25-7.07 60.51-6.94C60.76-6.81 60.99-6.63 61.20-6.41L61.76-7.04C61.53-7.30 61.23-7.53 60.87-7.72C60.51-7.92 60.09-8.02 59.61-8.02C59.11-8.02 58.64-7.92 58.21-7.73C57.79-7.55 57.42-7.28 57.10-6.92C56.79-6.57 56.55-6.14 56.37-5.64C56.20-5.14 56.11-4.57 56.11-3.94ZM62.46-7.87L62.46 0L63.45 0L63.45-2.50L64.81-4.09L67.16 0L68.28 0L65.43-4.87L67.89-7.87L66.77-7.87L63.49-3.92L63.45-3.92L63.45-7.87ZM69.91-7.87L69.91 0L70.84 0L70.84-4.33C70.84-4.68 70.82-5.07 70.79-5.50C70.76-5.92 70.73-6.31 70.71-6.66L70.75-6.66L71.38-4.91L72.90-0.79L73.47-0.79L74.98-4.91L75.61-6.66L75.66-6.66C75.63-6.31 75.60-5.92 75.57-5.50C75.54-5.07 75.53-4.68 75.53-4.33L75.53 0L76.48 0L76.48-7.87L75.30-7.87L73.79-3.65L73.24-2.04L73.19-2.04L72.61-3.65L71.09-7.87ZM81.03-3.20L78.66-3.20L79.04-4.40C79.18-4.84 79.32-5.28 79.44-5.72C79.57-6.15 79.70-6.60 79.82-7.06L79.86-7.06C79.99-6.60 80.12-6.15 80.25-5.72C80.38-5.28 80.51-4.84 80.66-4.40ZM81.28-2.40L82.02 0L83.09 0L80.43-7.87L79.30-7.87L76.64 0L77.66 0L78.41-2.40ZM82.67-3.94C82.67-3.30 82.76-2.72 82.94-2.21C83.11-1.71 83.36-1.28 83.67-0.93C83.98-0.58 84.35-0.32 84.79-0.13C85.22 0.05 85.69 0.14 86.21 0.14C86.74 0.14 87.22 0.06 87.64-0.11C88.06-0.29 88.39-0.50 88.65-0.77L88.65-4.08L86.07-4.08L86.07-3.25L87.74-3.25L87.74-1.20C87.58-1.06 87.37-0.94 87.12-0.86C86.87-0.77 86.60-0.73 86.32-0.73C85.90-0.73 85.52-0.81 85.20-0.96C84.88-1.11 84.60-1.33 84.38-1.61C84.16-1.89 84.00-2.23 83.88-2.62C83.76-3.02 83.71-3.46 83.71-3.96C83.71-4.45 83.77-4.89 83.89-5.28C84.02-5.67 84.19-6.01 84.41-6.28C84.64-6.56 84.91-6.77 85.23-6.92C85.55-7.07 85.91-7.14 86.31-7.14C86.71-7.14 87.04-7.07 87.30-6.93C87.56-6.79 87.79-6.62 87.99-6.41L88.55-7.04C88.32-7.28 88.02-7.51 87.66-7.71C87.30-7.91 86.84-8.02 86.30-8.02C85.77-8.02 85.29-7.92 84.85-7.73C84.41-7.55 84.02-7.28 83.70-6.92C83.38-6.57 83.12-6.14 82.94-5.64C82.76-5.14 82.67-4.57 82.67-3.94ZM89.58-7.87L89.58 0L90.57 0L90.57-7.87ZM91.32-3.94C91.32-3.30 91.40-2.72 91.58-2.21C91.75-1.71 91.99-1.28 92.30-0.93C92.60-0.58 92.97-0.32 93.39-0.13C93.81 0.05 94.27 0.14 94.76 0.14C95.27 0.14 95.71 0.04 96.11-0.16C96.50-0.36 96.85-0.64 97.16-1.00L96.60-1.61C96.34-1.33 96.07-1.11 95.79-0.96C95.50-0.81 95.17-0.73 94.79-0.73C94.41-0.73 94.07-0.81 93.77-0.96C93.47-1.11 93.22-1.33 93.01-1.61C92.80-1.89 92.64-2.23 92.52-2.62C92.41-3.02 92.35-3.46 92.35-3.96C92.35-4.45 92.41-4.89 92.53-5.28C92.65-5.67 92.82-6.01 93.03-6.28C93.25-6.56 93.51-6.77 93.81-6.92C94.12-7.07 94.46-7.14 94.83-7.14C95.17-7.14 95.46-7.07 95.72-6.94C95.97-6.81 96.20-6.63 96.41-6.41L96.97-7.04C96.74-7.30 96.44-7.53 96.08-7.72C95.72-7.92 95.30-8.02 94.82-8.02C94.32-8.02 93.85-7.92 93.42-7.73C93.00-7.55 92.63-7.28 92.31-6.92C92.00-6.57 91.76-6.14 91.58-5.64C91.41-5.14 91.32-4.57 91.32-3.94ZM99.13-7.87L99.13 0L100.13 0L100.13-3.12L101.55-3.12C101.98-3.12 102.37-3.17 102.73-3.27C103.08-3.37 103.39-3.52 103.65-3.72C103.90-3.92 104.10-4.17 104.24-4.48C104.38-4.78 104.45-5.14 104.45-5.56C104.45-5.99 104.38-6.35 104.24-6.65C104.10-6.94 103.90-7.18 103.65-7.36C103.40-7.54 103.09-7.67 102.73-7.75C102.37-7.83 101.98-7.87 101.55-7.87ZM101.43-3.94L100.13-3.94L100.13-7.07L101.43-7.07C102.11-7.07 102.61-6.96 102.95-6.74C103.29-6.52 103.45-6.12 103.45-5.56C103.45-5.00 103.29-4.59 102.96-4.33C102.62-4.07 102.11-3.94 101.43-3.94ZM106.08-4.14L106.08-7.07L107.40-7.07C108.02-7.07 108.49-6.96 108.82-6.76C109.15-6.55 109.31-6.18 109.31-5.66C109.31-5.15 109.15-4.77 108.82-4.52C108.49-4.27 108.02-4.14 107.40-4.14ZM109.41 0L110.54 0L108.54-3.43C109.08-3.57 109.51-3.82 109.83-4.19C110.15-4.56 110.31-5.05 110.31-5.66C110.31-6.07 110.24-6.42 110.10-6.70C109.97-6.98 109.78-7.20 109.53-7.38C109.29-7.56 109.00-7.68 108.66-7.76C108.32-7.83 107.95-7.87 107.55-7.87L105.09-7.87L105.09 0L106.08 0L106.08-3.32L107.51-3.32ZM114.01 0.14C114.50 0.14 114.96 0.05 115.37-0.14C115.78-0.34 116.14-0.61 116.44-0.97C116.74-1.32 116.97-1.75 117.13-2.26C117.30-2.77 117.38-3.34 117.38-3.97C117.38-4.60 117.30-5.16 117.13-5.66C116.97-6.16 116.74-6.58 116.44-6.93C116.14-7.28 115.78-7.55 115.37-7.73C114.96-7.92 114.50-8.02 114.01-8.02C113.51-8.02 113.06-7.92 112.64-7.74C112.23-7.56 111.88-7.29 111.58-6.94C111.29-6.59 111.06-6.17 110.89-5.67C110.73-5.17 110.65-4.60 110.65-3.97C110.65-3.34 110.73-2.77 110.89-2.26C111.06-1.75 111.29-1.32 111.58-0.97C111.88-0.61 112.23-0.34 112.64-0.14C113.06 0.05 113.51 0.14 114.01 0.14ZM114.01-0.73C113.65-0.73 113.34-0.81 113.05-0.96C112.77-1.11 112.52-1.33 112.32-1.61C112.12-1.90 111.96-2.24 111.85-2.63C111.73-3.03 111.68-3.48 111.68-3.97C111.68-4.46 111.73-4.90 111.85-5.29C111.96-5.68 112.12-6.02 112.32-6.29C112.52-6.56 112.77-6.77 113.05-6.92C113.34-7.07 113.65-7.14 114.01-7.14C114.36-7.14 114.68-7.07 114.96-6.92C115.24-6.77 115.49-6.56 115.69-6.29C115.90-6.02 116.05-5.68 116.17-5.29C116.28-4.90 116.33-4.46 116.33-3.97C116.33-3.48 116.28-3.03 116.17-2.63C116.05-2.24 115.90-1.90 115.69-1.61C115.49-1.33 115.24-1.11 114.96-0.96C114.68-0.81 114.36-0.73 114.01-0.73ZM118.11-7.87L118.11 0L120.62 0C121.06 0 121.46-0.05 121.83-0.14C122.20-0.24 122.52-0.38 122.78-0.58C123.04-0.77 123.25-1.01 123.39-1.30C123.54-1.58 123.61-1.92 123.61-2.30C123.61-2.85 123.45-3.28 123.13-3.59C122.81-3.90 122.36-4.10 121.78-4.19L121.78-4.24C122.25-4.36 122.59-4.57 122.82-4.89C123.04-5.21 123.15-5.56 123.15-5.95C123.15-6.30 123.09-6.59 122.95-6.83C122.82-7.08 122.64-7.28 122.40-7.43C122.17-7.58 121.88-7.69 121.55-7.76C121.22-7.84 120.85-7.87 120.45-7.87ZM120.27-4.51L119.11-4.51L119.11-7.08L120.32-7.08C120.94-7.08 121.40-6.99 121.71-6.80C122.01-6.61 122.17-6.30 122.17-5.87C122.17-5.43 122.02-5.09 121.73-4.86C121.44-4.63 120.95-4.51 120.27-4.51ZM120.48-0.79L119.11-0.79L119.11-3.77L120.48-3.77C121.17-3.77 121.70-3.65 122.07-3.43C122.44-3.20 122.62-2.84 122.62-2.35C122.62-1.82 122.44-1.42 122.06-1.17C121.68-0.92 121.16-0.79 120.48-0.79ZM124.21-7.87L124.21 0L128.87 0L128.87-0.85L125.21-0.85L125.21-3.71L128.19-3.71L128.19-4.56L125.21-4.56L125.21-7.03L128.75-7.03L128.75-7.87Z" transform="translate(-0.624, 8.016)"></path>
        </g>
      </g>
    </g>
  </mask>
  <defs v-gra="od"></defs>
</svg>